<?xml version="1.0" encoding="UTF-8"?><svg id="mermaid-1790656628440" width="2296.283935546875" xmlns="http://www.w3.org/2000/svg" xmlns:xlink="http://www.w3.org/1999/xlink" height="1741.72314453125" viewBox="-8 -8 2296.283935546875 1741.72314453125" role="graphics-document document" aria-roledescription="flowchart-v2"><style>#mermaid-1790656628440{font-family:"trebuchet ms",verdana,arial,sans-serif;font-size:16px;fill:#333;}#mermaid-1790656628440 .error-icon{fill:#552222;}#mermaid-1790656628440 .error-text{fill:#552222;stroke:#552222;}#mermaid-1790656628440 .edge-thickness-normal{stroke-width:2px;}#mermaid-1790656628440 .edge-thickness-thick{stroke-width:3.5px;}#mermaid-1790656628440 .edge-pattern-solid{stroke-dasharray:0;}#mermaid-1790656628440 .edge-pattern-dashed{stroke-dasharray:3;}#mermaid-1790656628440 .edge-pattern-dotted{stroke-dasharray:2;}#mermaid-1790656628440 .marker{fill:#333333;stroke:#333333;}#mermaid-1790656628440 .marker.cross{stroke:#333333;}#mermaid-1790656628440 svg{font-family:"trebuchet ms",verdana,arial,sans-serif;font-size:16px;}#mermaid-1790656628440 .label{font-family:"trebuchet ms",verdana,arial,sans-serif;color:#333;}#mermaid-1790656628440 .cluster-label text{fill:#333;}#mermaid-1790656628440 .cluster-label span,#mermaid-1790656628440 p{color:#333;}#mermaid-1790656628440 .label text,#mermaid-1790656628440 span,#mermaid-1790656628440 p{fill:#333;color:#333;}#mermaid-1790656628440 .node rect,#mermaid-1790656628440 .node circle,#mermaid-1790656628440 .node ellipse,#mermaid-1790656628440 .node polygon,#mermaid-1790656628440 .node path{fill:#ECECFF;stroke:#9370DB;stroke-width:1px;}#mermaid-1790656628440 .flowchart-label text{text-anchor:middle;}#mermaid-1790656628440 .node .katex path{fill:#000;stroke:#000;stroke-width:1px;}#mermaid-1790656628440 .node .label{text-align:center;}#mermaid-1790656628440 .node.clickable{cursor:pointer;}#mermaid-1790656628440 .arrowheadPath{fill:#333333;}#mermaid-1790656628440 .edgePath .path{stroke:#333333;stroke-width:2.0px;}#mermaid-1790656628440 .flowchart-link{stroke:#333333;fill:none;}#mermaid-1790656628440 .edgeLabel{background-color:#e8e8e8;text-align:center;}#mermaid-1790656628440 .edgeLabel rect{opacity:0.5;background-color:#e8e8e8;fill:#e8e8e8;}#mermaid-1790656628440 .labelBkg{background-color:rgba(232, 232, 232, 0.5);}#mermaid-1790656628440 .cluster rect{fill:#ffffde;stroke:#aaaa33;stroke-width:1px;}#mermaid-1790656628440 .cluster text{fill:#333;}#mermaid-1790656628440 .cluster span,#mermaid-1790656628440 p{color:#333;}#mermaid-1790656628440 div.mermaidTooltip{position:absolute;text-align:center;max-width:200px;padding:2px;font-family:"trebuchet ms",verdana,arial,sans-serif;font-size:12px;background:hsl(80, 100%, 96.2745098039%);border:1px solid #aaaa33;border-radius:2px;pointer-events:none;z-index:100;}#mermaid-1790656628440 .flowchartTitleText{text-anchor:middle;font-size:18px;fill:#333;}#mermaid-1790656628440 :root{--mermaid-font-family:"trebuchet ms",verdana,arial,sans-serif;}</style><g><marker id="mermaid-1790656628440_flowchart-pointEnd" class="marker flowchart" viewBox="0 0 10 10" refX="6" refY="5" markerUnits="userSpaceOnUse" markerWidth="12" markerHeight="12" orient="auto"><path d="M 0 0 L 10 5 L 0 10 z" class="arrowMarkerPath" style="stroke-width: 1; stroke-dasharray: 1, 0;"/></marker><marker id="mermaid-1790656628440_flowchart-pointStart" class="marker flowchart" viewBox="0 0 10 10" refX="4.5" refY="5" markerUnits="userSpaceOnUse" markerWidth="12" markerHeight="12" orient="auto"><path d="M 0 5 L 10 10 L 10 0 z" class="arrowMarkerPath" style="stroke-width: 1; stroke-dasharray: 1, 0;"/></marker><marker id="mermaid-1790656628440_flowchart-circleEnd" class="marker flowchart" viewBox="0 0 10 10" refX="11" refY="5" markerUnits="userSpaceOnUse" markerWidth="11" markerHeight="11" orient="auto"><circle cx="5" cy="5" r="5" class="arrowMarkerPath" style="stroke-width: 1; stroke-dasharray: 1, 0;"/></marker><marker id="mermaid-1790656628440_flowchart-circleStart" class="marker flowchart" viewBox="0 0 10 10" refX="-1" refY="5" markerUnits="userSpaceOnUse" markerWidth="11" markerHeight="11" orient="auto"><circle cx="5" cy="5" r="5" class="arrowMarkerPath" style="stroke-width: 1; stroke-dasharray: 1, 0;"/></marker><marker id="mermaid-1790656628440_flowchart-crossEnd" class="marker cross flowchart" viewBox="0 0 11 11" refX="12" refY="5.2" markerUnits="userSpaceOnUse" markerWidth="11" markerHeight="11" orient="auto"><path d="M 1,1 l 9,9 M 10,1 l -9,9" class="arrowMarkerPath" style="stroke-width: 2; stroke-dasharray: 1, 0;"/></marker><marker id="mermaid-1790656628440_flowchart-crossStart" class="marker cross flowchart" viewBox="0 0 11 11" refX="-1" refY="5.2" markerUnits="userSpaceOnUse" markerWidth="11" markerHeight="11" orient="auto"><path d="M 1,1 l 9,9 M 10,1 l -9,9" class="arrowMarkerPath" style="stroke-width: 2; stroke-dasharray: 1, 0;"/></marker><g class="root"><g class="clusters"><g class="cluster default flowchart-label" id="INGEST"><rect style="" rx="0" ry="0" x="219.09375" y="1051.1666717529297" width="339.04167556762695" height="451.50000762939453"/><g class="cluster-label" transform="translate(388.6145877838135, 1051.1666717529297)"><text style=""><tspan xml:space="preserve" dy="1em" x="0" class="row">⑥ 离线入库层（一次性）</tspan></text></g></g><g class="cluster default flowchart-label" id="DATA"><rect style="" rx="0" ry="0" x="46.4921875" y="1557.6666793823242" width="1462.3177337646484" height="168.05655670166016"/><g class="cluster-label" transform="translate(777.6510543823242, 1557.6666793823242)"><text style=""><tspan xml:space="preserve" dy="1em" x="0" class="row">⑤ 数据与模型层</tspan></text></g></g><g class="cluster default flowchart-label" id="RET"><rect style="" rx="0" ry="0" x="136.84375" y="891.5000038146973" width="697.7916793823242" height="104.66666793823242"/><g class="cluster-label" transform="translate(485.7395896911621, 891.5000038146973)"><text style=""><tspan xml:space="preserve" dy="1em" x="0" class="row">④ 检索层</tspan></text></g></g><g class="cluster default flowchart-label" id="ENGINE"><rect style="" rx="0" ry="0" x="1059.3333473205566" y="445.33333587646484" width="478.9602928161621" height="815.1666717529297"/><g class="cluster-label" transform="translate(1298.8134937286377, 445.33333587646484)"><text style=""><tspan xml:space="preserve" dy="1em" x="0" class="row">③ RAG 引擎层 src/rag_engine.py</tspan></text></g></g><g class="cluster default flowchart-label" id="API"><rect style="" rx="0" ry="0" x="0" y="283" width="2280.283863067627" height="88.66666793823242"/><g class="cluster-label" transform="translate(1140.1419315338135, 283)"><text style=""><tspan xml:space="preserve" dy="1em" x="0" class="row">② 接口服务层 FastAPI :8000</tspan></text></g></g><g class="cluster default flowchart-label" id="CLIENT"><rect style="" rx="0" ry="0" x="1493.3880348205566" y="0" width="415.09375" height="209.33333206176758"/><g class="cluster-label" transform="translate(1700.9349098205566, 0)"><text style=""><tspan xml:space="preserve" dy="1em" x="0" class="row">① 用户接入层</tspan></text></g></g></g><g class="edgePaths"><path d="M1700.935,61.167L1700.935,65.75C1700.935,70.333,1700.935,79.5,1700.935,87.783C1700.935,96.067,1700.935,103.467,1700.935,107.167L1700.935,110.867" id="L-U-ST-0" class=" edge-thickness-normal edge-pattern-solid flowchart-link LS-U LE-ST" style="fill:none;" marker-end="url(#mermaid-1790656628440_flowchart-pointEnd)"/><path d="M1700.935,181.833L1700.935,186.417C1700.935,191,1700.935,200.167,1700.935,210.889C1700.935,221.611,1700.935,233.889,1700.935,246.167C1700.935,258.444,1700.935,270.722,1700.935,280.561C1700.935,290.4,1700.935,297.8,1700.935,301.5L1700.935,305.2" id="L-ST-A-0" class=" edge-thickness-normal edge-pattern-solid flowchart-link LS-ST LE-A" style="fill:none;" marker-end="url(#mermaid-1790656628440_flowchart-pointEnd)"/><path d="M1607.607,344.139L1582.127,348.727C1556.647,353.315,1505.688,362.491,1480.208,373.218C1454.729,383.944,1454.729,396.222,1454.729,408.5C1454.729,420.778,1454.729,433.056,1429.328,445.18C1403.928,457.305,1353.128,469.276,1327.728,475.262L1302.327,481.248" id="L-A-MU-0" class=" edge-thickness-normal edge-pattern-solid flowchart-link LS-A LE-MU" style="fill:none;" marker-end="url(#mermaid-1790656628440_flowchart-pointEnd)"/><path d="M1156.974,344.167L1156.974,348.75C1156.974,353.333,1156.974,362.5,1156.974,373.222C1156.974,383.944,1156.974,396.222,1156.974,408.5C1156.974,420.778,1156.974,433.056,1162.875,443.275C1168.777,453.495,1180.58,461.657,1186.481,465.738L1192.382,469.819" id="L-S-MU-0" class=" edge-thickness-normal edge-pattern-dotted flowchart-link LS-S LE-MU" style="fill:none;stroke-width:2px;stroke-dasharray:3;" marker-end="url(#mermaid-1790656628440_flowchart-pointEnd)"/><path d="M1232.653,522.5L1232.653,527.083C1232.653,531.667,1232.653,540.833,1232.653,549.117C1232.653,557.4,1232.653,564.8,1232.653,568.5L1232.653,572.2" id="L-MU-QU-0" class=" edge-thickness-normal edge-pattern-solid flowchart-link LS-MU LE-QU" style="fill:none;" marker-end="url(#mermaid-1790656628440_flowchart-pointEnd)"/><path d="M1232.653,627.167L1232.653,631.75C1232.653,636.333,1232.653,645.5,1232.653,653.783C1232.653,662.067,1232.653,669.467,1232.653,673.167L1232.653,676.867" id="L-QU-CACHE-0" class=" edge-thickness-normal edge-pattern-solid flowchart-link LS-QU LE-CACHE" style="fill:none;" marker-end="url(#mermaid-1790656628440_flowchart-pointEnd)"/><path d="M1232.653,747.833L1232.653,752.417C1232.653,757,1232.653,766.167,1232.653,774.45C1232.653,782.733,1232.653,790.133,1232.653,793.833L1232.653,797.533" id="L-CACHE-FUSE-0" class=" edge-thickness-normal edge-pattern-solid flowchart-link LS-CACHE LE-FUSE" style="fill:none;" marker-end="url(#mermaid-1790656628440_flowchart-pointEnd)"/><path d="M1255.202,836.5L1261.341,841.083C1267.481,845.667,1279.759,854.833,1285.899,864C1292.038,873.167,1292.038,882.333,1292.038,891.95C1292.038,901.567,1292.038,911.633,1292.038,916.667L1292.038,921.7" id="L-FUSE-RR-0" class=" edge-thickness-normal edge-pattern-solid flowchart-link LS-FUSE LE-RR" style="fill:none;" marker-end="url(#mermaid-1790656628440_flowchart-pointEnd)"/><path d="M1329.193,960.667L1342.253,966.583C1355.312,972.5,1381.431,984.333,1394.49,994.833C1407.549,1005.333,1407.549,1014.5,1407.549,1023.667C1407.549,1032.833,1407.549,1042,1407.549,1050.283C1407.549,1058.567,1407.549,1065.967,1407.549,1069.667L1407.549,1073.367" id="L-RR-PC-0" class=" edge-thickness-normal edge-pattern-solid flowchart-link LS-RR LE-PC" style="fill:none;" marker-end="url(#mermaid-1790656628440_flowchart-pointEnd)"/><path d="M1407.549,1128.333L1407.549,1132.917C1407.549,1137.5,1407.549,1146.667,1407.549,1156.283C1407.549,1165.9,1407.549,1175.967,1407.549,1181L1407.549,1186.033" id="L-PC-LLM-0" class=" edge-thickness-normal edge-pattern-solid flowchart-link LS-PC LE-LLM" style="fill:none;" marker-end="url(#mermaid-1790656628440_flowchart-pointEnd)"/><path d="M1206.167,836.5L1198.956,841.083C1191.744,845.667,1177.321,854.833,1170.11,864C1162.898,873.167,1162.898,882.333,1080.007,894.53C997.115,906.726,831.332,921.953,748.44,929.566L665.549,937.179" id="L-FUSE-VEC-0" class=" edge-thickness-normal edge-pattern-solid flowchart-link LS-FUSE LE-VEC" style="fill:none;" marker-end="url(#mermaid-1790656628440_flowchart-pointEnd)"/><path d="M1230.303,836.5L1229.663,841.083C1229.023,845.667,1227.743,854.833,1227.103,864C1226.464,873.167,1226.464,882.333,1157.204,894.555C1087.944,906.777,949.424,922.055,880.163,929.693L810.903,937.332" id="L-FUSE-BM25-0" class=" edge-thickness-normal edge-pattern-solid flowchart-link LS-FUSE LE-BM25" style="fill:none;" marker-end="url(#mermaid-1790656628440_flowchart-pointEnd)"/><path d="M1198.573,836.5L1189.294,841.083C1180.015,845.667,1161.457,854.833,1152.178,864C1142.898,873.167,1142.898,882.333,1010.154,895.02C877.409,907.707,611.92,923.915,479.175,932.019L346.43,940.122" id="L-FUSE-TBL-0" class=" edge-thickness-normal edge-pattern-solid flowchart-link LS-FUSE LE-TBL" style="fill:none;" marker-end="url(#mermaid-1790656628440_flowchart-pointEnd)"/><path d="M593.094,968.667L593.094,973.25C593.094,977.833,593.094,987,593.094,996.167C593.094,1005.333,593.094,1014.5,593.094,1023.667C593.094,1032.833,593.094,1042,593.094,1055.306C593.094,1068.611,593.094,1086.056,593.094,1103.5C593.094,1120.944,593.094,1138.389,593.094,1155.833C593.094,1173.278,593.094,1190.722,593.094,1208.167C593.094,1225.611,593.094,1243.056,593.094,1257.917C593.094,1272.778,593.094,1285.056,593.094,1300.139C593.094,1315.222,593.094,1333.111,593.094,1351C593.094,1368.889,593.094,1386.778,593.094,1404.667C593.094,1422.556,593.094,1440.444,593.094,1456.778C593.094,1473.111,593.094,1487.889,576.598,1499.861C560.102,1511.833,527.111,1521,510.615,1530.167C494.119,1539.333,494.119,1548.5,479.669,1561.701C465.219,1574.902,436.318,1592.137,421.868,1600.755L407.418,1609.372" id="L-VEC-MILVUS-0" class=" edge-thickness-normal edge-pattern-solid flowchart-link LS-VEC LE-MILVUS" style="fill:none;" marker-end="url(#mermaid-1790656628440_flowchart-pointEnd)"/><path d="M257.802,960.667L248.017,966.583C238.232,972.5,218.663,984.333,208.878,994.833C199.094,1005.333,199.094,1014.5,199.094,1023.667C199.094,1032.833,199.094,1042,199.094,1055.306C199.094,1068.611,199.094,1086.056,199.094,1103.5C199.094,1120.944,199.094,1138.389,199.094,1155.833C199.094,1173.278,199.094,1190.722,199.094,1208.167C199.094,1225.611,199.094,1243.056,199.094,1257.917C199.094,1272.778,199.094,1285.056,199.094,1300.139C199.094,1315.222,199.094,1333.111,199.094,1351C199.094,1368.889,199.094,1386.778,199.094,1404.667C199.094,1422.556,199.094,1440.444,199.094,1456.778C199.094,1473.111,199.094,1487.889,204.725,1499.861C210.356,1511.833,221.618,1521,227.249,1530.167C232.88,1539.333,232.88,1548.5,235.787,1557.16C238.695,1565.819,244.51,1573.972,247.418,1578.048L250.325,1582.125" id="L-TBL-MILVUS-0" class=" edge-thickness-normal edge-pattern-solid flowchart-link LS-TBL LE-MILVUS" style="fill:none;" marker-end="url(#mermaid-1790656628440_flowchart-pointEnd)"/><path d="M751.953,968.667L751.953,973.25C751.953,977.833,751.953,987,763.107,996.167C774.26,1005.333,796.567,1014.5,807.721,1023.667C818.874,1032.833,818.874,1042,818.874,1055.306C818.874,1068.611,818.874,1086.056,818.874,1103.5C818.874,1120.944,818.874,1138.389,818.874,1155.833C818.874,1173.278,818.874,1190.722,818.874,1208.167C818.874,1225.611,818.874,1243.056,818.874,1257.917C818.874,1272.778,818.874,1285.056,818.874,1300.139C818.874,1315.222,818.874,1333.111,818.874,1351C818.874,1368.889,818.874,1386.778,818.874,1404.667C818.874,1422.556,818.874,1440.444,818.874,1456.778C818.874,1473.111,818.874,1487.889,818.874,1499.861C818.874,1511.833,818.874,1521,818.874,1530.167C818.874,1539.333,818.874,1548.5,814.258,1557.815C809.641,1567.131,800.407,1576.594,795.79,1581.326L791.173,1586.058" id="L-BM25-MYSQL-0" class=" edge-thickness-normal edge-pattern-solid flowchart-link LS-BM25 LE-MYSQL" style="fill:none;" marker-end="url(#mermaid-1790656628440_flowchart-pointEnd)"/><path d="M1256.933,960.667L1244.594,966.583C1232.255,972.5,1207.577,984.333,1195.238,994.833C1182.898,1005.333,1182.898,1014.5,1182.898,1023.667C1182.898,1032.833,1182.898,1042,1182.898,1055.306C1182.898,1068.611,1182.898,1086.056,1182.898,1103.5C1182.898,1120.944,1182.898,1138.389,1182.898,1155.833C1182.898,1173.278,1182.898,1190.722,1182.898,1208.167C1182.898,1225.611,1182.898,1243.056,1182.898,1257.917C1182.898,1272.778,1182.898,1285.056,1182.898,1300.139C1182.898,1315.222,1182.898,1333.111,1182.898,1351C1182.898,1368.889,1182.898,1386.778,1182.898,1404.667C1182.898,1422.556,1182.898,1440.444,1182.898,1456.778C1182.898,1473.111,1182.898,1487.889,1182.898,1499.861C1182.898,1511.833,1182.898,1521,1182.898,1530.167C1182.898,1539.333,1182.898,1548.5,1182.898,1560.733C1182.898,1572.965,1182.898,1588.263,1182.898,1595.912L1182.898,1603.562" id="L-RR-EMB-0" class=" edge-thickness-normal edge-pattern-dotted flowchart-link LS-RR LE-EMB" style="fill:none;stroke-width:2px;stroke-dasharray:3;" marker-end="url(#mermaid-1790656628440_flowchart-pointEnd)"/><path d="M1407.549,1225L1407.549,1230.917C1407.549,1236.833,1407.549,1248.667,1407.549,1260.722C1407.549,1272.778,1407.549,1285.056,1407.549,1300.139C1407.549,1315.222,1407.549,1333.111,1407.549,1351C1407.549,1368.889,1407.549,1386.778,1407.549,1404.667C1407.549,1422.556,1407.549,1440.444,1407.549,1456.778C1407.549,1473.111,1407.549,1487.889,1407.549,1499.861C1407.549,1511.833,1407.549,1521,1407.549,1530.167C1407.549,1539.333,1407.549,1548.5,1407.549,1562.066C1407.549,1575.632,1407.549,1593.597,1407.549,1602.579L1407.549,1611.562" id="L-LLM-DS-0" class=" edge-thickness-normal edge-pattern-solid flowchart-link LS-LLM LE-DS" style="fill:none;" marker-end="url(#mermaid-1790656628440_flowchart-pointEnd)"/><path d="M1734.097,344.167L1743.126,348.75C1752.156,353.333,1770.214,362.5,1779.244,373.222C1788.273,383.944,1788.273,396.222,1788.273,408.5C1788.273,420.778,1788.273,433.056,1788.273,447.917C1788.273,462.778,1788.273,480.222,1788.273,497.667C1788.273,515.111,1788.273,532.556,1788.273,550C1788.273,567.444,1788.273,584.889,1788.273,602.333C1788.273,619.778,1788.273,637.222,1788.273,656C1788.273,674.778,1788.273,694.889,1788.273,715C1788.273,735.111,1788.273,755.222,1788.273,772.667C1788.273,790.111,1788.273,804.889,1788.273,819.667C1788.273,834.444,1788.273,849.222,1788.273,861.194C1788.273,873.167,1788.273,882.333,1650.851,895.639C1513.43,908.944,1238.587,926.389,1101.166,943.833C963.745,961.278,963.745,978.722,936.266,992.028C908.788,1005.333,853.831,1014.5,826.353,1023.667C798.874,1032.833,798.874,1042,798.874,1055.306C798.874,1068.611,798.874,1086.056,798.874,1103.5C798.874,1120.944,798.874,1138.389,798.874,1155.833C798.874,1173.278,798.874,1190.722,798.874,1208.167C798.874,1225.611,798.874,1243.056,798.874,1257.917C798.874,1272.778,798.874,1285.056,798.874,1300.139C798.874,1315.222,798.874,1333.111,798.874,1351C798.874,1368.889,798.874,1386.778,798.874,1404.667C798.874,1422.556,798.874,1440.444,798.874,1456.778C798.874,1473.111,798.874,1487.889,798.874,1499.861C798.874,1511.833,798.874,1521,798.874,1530.167C798.874,1539.333,798.874,1548.5,795.329,1557.511C791.784,1566.522,784.694,1575.377,781.149,1579.804L777.604,1584.231" id="L-A-MYSQL-0" class=" edge-thickness-normal edge-pattern-dotted flowchart-link LS-A LE-MYSQL" style="fill:none;stroke-width:2px;stroke-dasharray:3;" marker-end="url(#mermaid-1790656628440_flowchart-pointEnd)"/><path d="M1504.118,344.167L1513.147,348.75C1522.176,353.333,1540.235,362.5,1549.264,373.222C1558.294,383.944,1558.294,396.222,1558.294,408.5C1558.294,420.778,1558.294,433.056,1558.294,447.917C1558.294,462.778,1558.294,480.222,1558.294,497.667C1558.294,515.111,1558.294,532.556,1558.294,550C1558.294,567.444,1558.294,584.889,1558.294,602.333C1558.294,619.778,1558.294,637.222,1558.294,656C1558.294,674.778,1558.294,694.889,1558.294,715C1558.294,735.111,1558.294,755.222,1558.294,772.667C1558.294,790.111,1558.294,804.889,1558.294,819.667C1558.294,834.444,1558.294,849.222,1558.294,861.194C1558.294,873.167,1558.294,882.333,1444.351,895.639C1330.408,908.944,1102.521,926.389,988.578,943.833C874.635,961.278,874.635,978.722,852.916,992.028C831.197,1005.333,787.758,1014.5,766.039,1023.667C744.32,1032.833,744.32,1042,744.32,1055.306C744.32,1068.611,744.32,1086.056,744.32,1103.5C744.32,1120.944,744.32,1138.389,744.32,1155.833C744.32,1173.278,744.32,1190.722,744.32,1208.167C744.32,1225.611,744.32,1243.056,744.32,1257.917C744.32,1272.778,744.32,1285.056,744.32,1300.139C744.32,1315.222,744.32,1333.111,744.32,1351C744.32,1368.889,744.32,1386.778,744.32,1404.667C744.32,1422.556,744.32,1440.444,744.32,1456.778C744.32,1473.111,744.32,1487.889,744.32,1499.861C744.32,1511.833,744.32,1521,744.32,1530.167C744.32,1539.333,744.32,1548.5,743.503,1557.013C742.685,1565.525,741.051,1573.383,740.234,1577.313L739.417,1581.242" id="L-F-MYSQL-0" class=" edge-thickness-normal edge-pattern-dotted flowchart-link LS-F LE-MYSQL" style="fill:none;stroke-width:2px;stroke-dasharray:3;" marker-end="url(#mermaid-1790656628440_flowchart-pointEnd)"/><path d="M327.812,340.323L287.317,345.547C246.822,350.771,165.833,361.219,125.338,372.582C84.844,383.944,84.844,396.222,84.844,408.5C84.844,420.778,84.844,433.056,84.844,447.917C84.844,462.778,84.844,480.222,84.844,497.667C84.844,515.111,84.844,532.556,84.844,550C84.844,567.444,84.844,584.889,84.844,602.333C84.844,619.778,84.844,637.222,84.844,656C84.844,674.778,84.844,694.889,84.844,715C84.844,735.111,84.844,755.222,84.844,772.667C84.844,790.111,84.844,804.889,84.844,819.667C84.844,834.444,84.844,849.222,84.844,861.194C84.844,873.167,84.844,882.333,84.844,895.639C84.844,908.944,84.844,926.389,84.844,943.833C84.844,961.278,84.844,978.722,84.844,992.028C84.844,1005.333,84.844,1014.5,84.844,1023.667C84.844,1032.833,84.844,1042,84.844,1055.306C84.844,1068.611,84.844,1086.056,84.844,1103.5C84.844,1120.944,84.844,1138.389,84.844,1155.833C84.844,1173.278,84.844,1190.722,84.844,1208.167C84.844,1225.611,84.844,1243.056,84.844,1257.917C84.844,1272.778,84.844,1285.056,84.844,1300.139C84.844,1315.222,84.844,1333.111,84.844,1351C84.844,1368.889,84.844,1386.778,84.844,1404.667C84.844,1422.556,84.844,1440.444,84.844,1456.778C84.844,1473.111,84.844,1487.889,96.475,1499.861C108.106,1511.833,131.368,1521,142.999,1530.167C154.63,1539.333,154.63,1548.5,161.621,1558.526C168.613,1568.552,182.596,1579.437,189.588,1584.88L196.58,1590.322" id="L-H-MILVUS-0" class=" edge-thickness-normal edge-pattern-dotted flowchart-link LS-H LE-MILVUS" style="fill:none;stroke-width:2px;stroke-dasharray:3;" marker-end="url(#mermaid-1790656628440_flowchart-pointEnd)"/><path d="M529.187,337.808L583.428,343.451C637.67,349.095,746.153,360.381,800.394,372.163C854.635,383.944,854.635,396.222,854.635,408.5C854.635,420.778,854.635,433.056,854.635,447.917C854.635,462.778,854.635,480.222,854.635,497.667C854.635,515.111,854.635,532.556,854.635,550C854.635,567.444,854.635,584.889,854.635,602.333C854.635,619.778,854.635,637.222,854.635,656C854.635,674.778,854.635,694.889,854.635,715C854.635,735.111,854.635,755.222,854.635,772.667C854.635,790.111,854.635,804.889,854.635,819.667C854.635,834.444,854.635,849.222,854.635,861.194C854.635,873.167,854.635,882.333,854.635,895.639C854.635,908.944,854.635,926.389,854.635,943.833C854.635,961.278,854.635,978.722,832.916,992.028C811.197,1005.333,767.758,1014.5,746.039,1023.667C724.32,1032.833,724.32,1042,724.32,1055.306C724.32,1068.611,724.32,1086.056,724.32,1103.5C724.32,1120.944,724.32,1138.389,724.32,1155.833C724.32,1173.278,724.32,1190.722,724.32,1208.167C724.32,1225.611,724.32,1243.056,724.32,1257.917C724.32,1272.778,724.32,1285.056,724.32,1300.139C724.32,1315.222,724.32,1333.111,724.32,1351C724.32,1368.889,724.32,1386.778,724.32,1404.667C724.32,1422.556,724.32,1440.444,724.32,1456.778C724.32,1473.111,724.32,1487.889,724.32,1499.861C724.32,1511.833,724.32,1521,724.32,1530.167C724.32,1539.333,724.32,1548.5,724.433,1556.976C724.547,1565.452,724.775,1573.237,724.889,1577.129L725.002,1581.022" id="L-H-MYSQL-0" class=" edge-thickness-normal edge-pattern-dotted flowchart-link LS-H LE-MYSQL" style="fill:none;stroke-width:2px;stroke-dasharray:3;" marker-end="url(#mermaid-1790656628440_flowchart-pointEnd)"/><path d="M399.995,1120.333L399.995,1126.25C399.995,1132.167,399.995,1144,399.995,1153.617C399.995,1163.233,399.995,1170.633,399.995,1174.333L399.995,1178.033" id="L-PDF-PARSER-0" class=" edge-thickness-normal edge-pattern-solid flowchart-link LS-PDF LE-PARSER" style="fill:none;" marker-end="url(#mermaid-1790656628440_flowchart-pointEnd)"/><path d="M399.995,1233L399.995,1237.583C399.995,1242.167,399.995,1251.333,399.995,1262.056C399.995,1272.778,399.995,1285.056,399.995,1296.45C399.995,1307.844,399.995,1318.356,399.995,1323.611L399.995,1328.867" id="L-PARSER-CHUNK-0" class=" edge-thickness-normal edge-pattern-solid flowchart-link LS-PARSER LE-CHUNK" style="fill:none;" marker-end="url(#mermaid-1790656628440_flowchart-pointEnd)"/><path d="M377.172,1367.833L368.849,1373.972C360.526,1380.111,343.88,1392.389,335.557,1403.783C327.234,1415.178,327.234,1425.689,327.234,1430.944L327.234,1436.2" id="L-CHUNK-EMB2-0" class=" edge-thickness-normal edge-pattern-solid flowchart-link LS-CHUNK LE-EMB2" style="fill:none;" marker-end="url(#mermaid-1790656628440_flowchart-pointEnd)"/><path d="M327.234,1475.167L327.234,1479.75C327.234,1484.333,327.234,1493.5,295.134,1502.667C263.033,1511.833,198.831,1521,166.73,1530.167C134.63,1539.333,134.63,1548.5,142.893,1559.829C151.157,1571.157,167.684,1584.648,175.947,1591.393L184.211,1598.138" id="L-EMB2-MILVUS-0" class=" edge-thickness-normal edge-pattern-solid flowchart-link LS-EMB2 LE-MILVUS" style="fill:none;" marker-end="url(#mermaid-1790656628440_flowchart-pointEnd)"/><path d="M422.817,1367.833L431.14,1373.972C439.463,1380.111,456.109,1392.389,464.432,1407.472C472.755,1422.556,472.755,1440.444,472.755,1456.778C472.755,1473.111,472.755,1487.889,479.649,1499.861C486.543,1511.833,500.331,1521,507.225,1530.167C514.119,1539.333,514.119,1548.5,533.038,1560.559C551.957,1572.618,589.795,1587.569,608.714,1595.045L627.633,1602.52" id="L-CHUNK-MYSQL-0" class=" edge-thickness-normal edge-pattern-dotted flowchart-link LS-CHUNK LE-MYSQL" style="fill:none;stroke-width:2px;stroke-dasharray:3;" marker-end="url(#mermaid-1790656628440_flowchart-pointEnd)"/><path d="M322.423,960.667L335.352,966.583C348.28,972.5,374.137,984.333,387.066,994.833C399.995,1005.333,399.995,1014.5,399.995,1023.667C399.995,1032.833,399.995,1042,399.995,1052.5C399.995,1063,399.995,1074.833,399.995,1080.75L399.995,1086.667" id="L-TBL-PDF-0" class=" edge-thickness-thick edge-pattern-solid flowchart-link LS-TBL LE-PDF" style="stroke-width: 0;fill:none;"/></g><g class="edgeLabels"><g class="edgeLabel"><g class="label" transform="translate(0, 0)"><rect rx="0" ry="0" width="0" height="0"/><text style=""><tspan xml:space="preserve" dy="1em" x="0" class="row"/></text></g></g><g class="edgeLabel" transform="translate(1700.9349098205566, 246.1666660308838)"><g class="label" transform="translate(-96.14192962646484, -9.333333969116211)"><rect rx="0" ry="0" width="192.2077178955078" height="18.66671371459961"/><text style=""><tspan xml:space="preserve" dy="1em" x="0" class="row">HTTP/JSON :8502 → :8000</tspan></text></g></g><g class="edgeLabel"><g class="label" transform="translate(0, 0)"><rect rx="0" ry="0" width="0" height="0"/><text style=""><tspan xml:space="preserve" dy="1em" x="0" class="row"/></text></g></g><g class="edgeLabel" transform="translate(1156.9739723205566, 408.50000190734863)"><g class="label" transform="translate(-62.390625, -9.333333969116211)"><rect rx="0" ry="0" width="124.73989868164062" height="18.66671371459961"/><text style=""><tspan xml:space="preserve" dy="1em" x="0" class="row">SSE 同一引擎链路</tspan></text></g></g><g class="edgeLabel"><g class="label" transform="translate(0, 0)"><rect rx="0" ry="0" width="0" height="0"/><text style=""><tspan xml:space="preserve" dy="1em" x="0" class="row"/></text></g></g><g class="edgeLabel"><g class="label" transform="translate(0, 0)"><rect rx="0" ry="0" width="0" height="0"/><text style=""><tspan xml:space="preserve" dy="1em" x="0" class="row"/></text></g></g><g class="edgeLabel"><g class="label" transform="translate(0, 0)"><rect rx="0" ry="0" width="0" height="0"/><text style=""><tspan xml:space="preserve" dy="1em" x="0" class="row"/></text></g></g><g class="edgeLabel"><g class="label" transform="translate(0, 0)"><rect rx="0" ry="0" width="0" height="0"/><text style=""><tspan xml:space="preserve" dy="1em" x="0" class="row"/></text></g></g><g class="edgeLabel"><g class="label" transform="translate(0, 0)"><rect rx="0" ry="0" width="0" height="0"/><text style=""><tspan xml:space="preserve" dy="1em" x="0" class="row"/></text></g></g><g class="edgeLabel"><g class="label" transform="translate(0, 0)"><rect rx="0" ry="0" width="0" height="0"/><text style=""><tspan xml:space="preserve" dy="1em" x="0" class="row"/></text></g></g><g class="edgeLabel"><g class="label" transform="translate(0, 0)"><rect rx="0" ry="0" width="0" height="0"/><text style=""><tspan xml:space="preserve" dy="1em" x="0" class="row"/></text></g></g><g class="edgeLabel"><g class="label" transform="translate(0, 0)"><rect rx="0" ry="0" width="0" height="0"/><text style=""><tspan xml:space="preserve" dy="1em" x="0" class="row"/></text></g></g><g class="edgeLabel"><g class="label" transform="translate(0, 0)"><rect rx="0" ry="0" width="0" height="0"/><text style=""><tspan xml:space="preserve" dy="1em" x="0" class="row"/></text></g></g><g class="edgeLabel"><g class="label" transform="translate(0, 0)"><rect rx="0" ry="0" width="0" height="0"/><text style=""><tspan xml:space="preserve" dy="1em" x="0" class="row"/></text></g></g><g class="edgeLabel"><g class="label" transform="translate(0, 0)"><rect rx="0" ry="0" width="0" height="0"/><text style=""><tspan xml:space="preserve" dy="1em" x="0" class="row"/></text></g></g><g class="edgeLabel"><g class="label" transform="translate(0, 0)"><rect rx="0" ry="0" width="0" height="0"/><text style=""><tspan xml:space="preserve" dy="1em" x="0" class="row"/></text></g></g><g class="edgeLabel" transform="translate(1182.898452758789, 1297.3333415985107)"><g class="label" transform="translate(-67.484375, -9.333333969116211)"><rect rx="0" ry="0" width="134.91944885253906" height="18.66671371459961"/><text style=""><tspan xml:space="preserve" dy="1em" x="0" class="row">调用 reranker 模型</tspan></text></g></g><g class="edgeLabel" transform="translate(1407.5494995117188, 1404.6666774749756)"><g class="label" transform="translate(-41.24479293823242, -9.333333969116211)"><rect rx="0" ry="0" width="82.45854187011719" height="18.66671371459961"/><text style=""><tspan xml:space="preserve" dy="1em" x="0" class="row">HTTPS 调用</tspan></text></g></g><g class="edgeLabel" transform="translate(963.7448043823242, 943.8333377838135)"><g class="label" transform="translate(-69.109375, -9.333333969116211)"><rect rx="0" ry="0" width="138.16812133789062" height="18.66671371459961"/><text style=""><tspan xml:space="preserve" dy="1em" x="0" class="row">QA 日志 / 反馈写库</tspan></text></g></g><g class="edgeLabel"><g class="label" transform="translate(0, 0)"><rect rx="0" ry="0" width="0" height="0"/><text style=""><tspan xml:space="preserve" dy="1em" x="0" class="row"/></text></g></g><g class="edgeLabel" transform="translate(84.84375, 943.8333377838135)"><g class="label" transform="translate(-32, -9.333333969116211)"><rect rx="0" ry="0" width="63.980140686035156" height="18.66671371459961"/><text style=""><tspan xml:space="preserve" dy="1em" x="0" class="row">健康检查</tspan></text></g></g><g class="edgeLabel"><g class="label" transform="translate(0, 0)"><rect rx="0" ry="0" width="0" height="0"/><text style=""><tspan xml:space="preserve" dy="1em" x="0" class="row"/></text></g></g><g class="edgeLabel"><g class="label" transform="translate(0, 0)"><rect rx="0" ry="0" width="0" height="0"/><text style=""><tspan xml:space="preserve" dy="1em" x="0" class="row"/></text></g></g><g class="edgeLabel"><g class="label" transform="translate(0, 0)"><rect rx="0" ry="0" width="0" height="0"/><text style=""><tspan xml:space="preserve" dy="1em" x="0" class="row"/></text></g></g><g class="edgeLabel"><g class="label" transform="translate(0, 0)"><rect rx="0" ry="0" width="0" height="0"/><text style=""><tspan xml:space="preserve" dy="1em" x="0" class="row"/></text></g></g><g class="edgeLabel"><g class="label" transform="translate(0, 0)"><rect rx="0" ry="0" width="0" height="0"/><text style=""><tspan xml:space="preserve" dy="1em" x="0" class="row"/></text></g></g><g class="edgeLabel" transform="translate(472.7552146911621, 1458.333345413208)"><g class="label" transform="translate(-40, -9.333333969116211)"><rect rx="0" ry="0" width="79.9735107421875" height="18.66671371459961"/><text style=""><tspan xml:space="preserve" dy="1em" x="0" class="row">分块元数据</tspan></text></g></g><g class="edgeLabel"><g class="label" transform="translate(0, 0)"><rect rx="0" ry="0" width="0" height="0"/><text style=""><tspan xml:space="preserve" dy="1em" x="0" class="row"/></text></g></g></g><g class="nodes"><g class="node default default flowchart-label" id="flowchart-PDF-22" data-node="true" data-id="PDF" transform="translate(399.9947967529297, 1103.500005722046)"><rect class="basic label-container" style="" rx="0" ry="0" x="-47.47916793823242" y="-16.83333396911621" width="94.95833587646484" height="33.66666793823242"/><g class="label" style="" transform="translate(0, -9.333333969116211)"><rect/><text style=""><tspan xml:space="preserve" dy="1em" x="0" class="row">PDF 招股书</tspan></text></g></g><g class="node default default flowchart-label" id="flowchart-PARSER-23" data-node="true" data-id="PARSER" transform="translate(399.9947967529297, 1208.1666736602783)"><rect class="basic label-container" style="" rx="0" ry="0" x="-81.76042175292969" y="-24.83333396911621" width="163.52084350585938" height="49.66666793823242"/><g class="label" style="" transform="translate(0, -17.33333396911621)"><rect/><text style=""><tspan xml:space="preserve" dy="1em" x="0" class="row">优化解析</tspan><tspan xml:space="preserve" dy="1em" x="0" class="row">版面分析 + OCR 兜底</tspan></text></g></g><g class="node default default flowchart-label" id="flowchart-CHUNK-24" data-node="true" data-id="CHUNK" transform="translate(399.9947967529297, 1351.0000095367432)"><rect class="basic label-container" style="" rx="0" ry="0" x="-72.515625" y="-16.83333396911621" width="145.03125" height="33.66666793823242"/><g class="label" style="" transform="translate(0, -9.333333969116211)"><rect/><text style=""><tspan xml:space="preserve" dy="1em" x="0" class="row">语义分块 + 父子块</tspan></text></g></g><g class="node default default flowchart-label" id="flowchart-EMB2-25" data-node="true" data-id="EMB2" transform="translate(327.23437881469727, 1458.333345413208)"><rect class="basic label-container" style="" rx="0" ry="0" x="-76.52083587646484" y="-16.83333396911621" width="153.0416717529297" height="33.66666793823242"/><g class="label" style="" transform="translate(0, -9.333333969116211)"><rect/><text style=""><tspan xml:space="preserve" dy="1em" x="0" class="row">bge-m3 批量向量化</tspan></text></g></g><g class="node default default flowchart-label" id="flowchart-MILVUS-18" label-offset-y="15.796628636101259" data-node="true" data-id="MILVUS" transform="translate(295.59114837646484, 1641.6949577331543)"><path style="" d="M 0,15.796628636101259 a 107.27474212646484,15.796628636101259 0,0,0 214.5494842529297 0 a 107.27474212646484,15.796628636101259 0,0,0 -214.5494842529297 0 l 0,81.46329657433368 a 107.27474212646484,15.796628636101259 0,0,0 214.5494842529297 0 l 0,-81.46329657433368" transform="translate(-107.27474212646484,-56.5282769232681)"/><g class="label" style="" transform="translate(0, -25.33333396911621)"><rect/><text style=""><tspan xml:space="preserve" dy="1em" x="0" class="row">Milvus 2.6.9 :19530</tspan><tspan xml:space="preserve" dy="1em" x="0" class="row">rag_chunks / HNSW+COSINE</tspan><tspan xml:space="preserve" dy="1em" x="0" class="row">不可用→Lite 降级</tspan></text></g></g><g class="node default default flowchart-label" id="flowchart-MYSQL-19" label-offset-y="15.02957923948084" data-node="true" data-id="MYSQL" transform="translate(726.776050567627, 1641.6949577331543)"><path style="" d="M 0,15.02957923948084 a 94.21354675292969,15.02957923948084 0,0,0 188.42709350585938 0 a 94.21354675292969,15.02957923948084 0,0,0 -188.42709350585938 0 l 0,80.69624717771326 a 94.21354675292969,15.02957923948084 0,0,0 188.42709350585938 0 l 0,-80.69624717771326" transform="translate(-94.21354675292969,-55.37770282833747)"/><g class="label" style="" transform="translate(0, -25.33333396911621)"><rect/><text style=""><tspan xml:space="preserve" dy="1em" x="0" class="row">MySQL 8.0 :3307</tspan><tspan xml:space="preserve" dy="1em" x="0" class="row">rag_pdf_qa</tspan><tspan xml:space="preserve" dy="1em" x="0" class="row">文档/分块/QA日志/反馈</tspan></text></g></g><g class="node default default flowchart-label" id="flowchart-EMB-20" data-node="true" data-id="EMB" transform="translate(1182.898452758789, 1641.6949577331543)"><rect class="basic label-container" style="" rx="0" ry="0" x="-114.390625" y="-32.83333396911621" width="228.78125" height="65.66666793823242"/><g class="label" style="" transform="translate(0, -25.33333396911621)"><rect/><text style=""><tspan xml:space="preserve" dy="1em" x="0" class="row">本地模型</tspan><tspan xml:space="preserve" dy="1em" x="0" class="row">bge-m3 / bge-reranker-v2-m3</tspan><tspan xml:space="preserve" dy="1em" x="0" class="row">PyTorch cu128</tspan></text></g></g><g class="node default default flowchart-label" id="flowchart-DS-21" data-node="true" data-id="DS" transform="translate(1407.5494995117188, 1641.6949577331543)"><rect class="basic label-container" style="" rx="0" ry="0" x="-72.26042175292969" y="-24.83333396911621" width="144.52084350585938" height="49.66666793823242"/><g class="label" style="" transform="translate(0, -17.33333396911621)"><rect/><text style=""><tspan xml:space="preserve" dy="1em" x="0" class="row">☁️ DeepSeek API</tspan><tspan xml:space="preserve" dy="1em" x="0" class="row">deepseek-v4-flash</tspan></text></g></g><g class="node default default flowchart-label" id="flowchart-VEC-15" data-node="true" data-id="VEC" transform="translate(593.0937576293945, 943.8333377838135)"><rect class="basic label-container" style="" rx="0" ry="0" x="-67.17708587646484" y="-24.83333396911621" width="134.3541717529297" height="49.66666793823242"/><g class="label" style="" transform="translate(0, -17.33333396911621)"><rect/><text style=""><tspan xml:space="preserve" dy="1em" x="0" class="row">向量召回</tspan><tspan xml:space="preserve" dy="1em" x="0" class="row">bge-m3 (1024维)</tspan></text></g></g><g class="node default default flowchart-label" id="flowchart-BM25-16" data-node="true" data-id="BM25" transform="translate(751.9531364440918, 943.8333377838135)"><rect class="basic label-container" style="" rx="0" ry="0" x="-53.68229293823242" y="-24.83333396911621" width="107.36458587646484" height="49.66666793823242"/><g class="label" style="" transform="translate(0, -17.33333396911621)"><rect/><text style=""><tspan xml:space="preserve" dy="1em" x="0" class="row">关键词召回</tspan><tspan xml:space="preserve" dy="1em" x="0" class="row">jieba + BM25</tspan></text></g></g><g class="node default default flowchart-label" id="flowchart-TBL-17" data-node="true" data-id="TBL" transform="translate(285.63997650146484, 943.8333377838135)"><rect class="basic label-container" style="" rx="0" ry="0" x="-55.5" y="-16.83333396911621" width="111" height="33.66666793823242"/><g class="label" style="" transform="translate(0, -9.333333969116211)"><rect/><text style=""><tspan xml:space="preserve" dy="1em" x="0" class="row">表格专项召回</tspan></text></g></g><g class="node default default flowchart-label" id="flowchart-MU-8" data-node="true" data-id="MU" transform="translate(1232.6530113220215, 497.66666984558105)"><rect class="basic label-container" style="" rx="0" ry="0" x="-64.515625" y="-24.83333396911621" width="129.03125" height="49.66666793823242"/><g class="label" style="" transform="translate(0, -17.33333396911621)"><rect/><text style=""><tspan xml:space="preserve" dy="1em" x="0" class="row">多语言路由</tspan><tspan xml:space="preserve" dy="1em" x="0" class="row">语言检测 + 翻译</tspan></text></g></g><g class="node default default flowchart-label" id="flowchart-QU-9" data-node="true" data-id="QU" transform="translate(1232.6530113220215, 602.3333377838135)"><rect class="basic label-container" style="" rx="0" ry="0" x="-118.13021087646484" y="-24.83333396911621" width="236.2604217529297" height="49.66666793823242"/><g class="label" style="" transform="translate(0, -17.33333396911621)"><rect/><text style=""><tspan xml:space="preserve" dy="1em" x="0" class="row">查询理解</tspan><tspan xml:space="preserve" dy="1em" x="0" class="row">LLM 改写 + Multi-Query + HyDE</tspan></text></g></g><g class="node default default flowchart-label" id="flowchart-CACHE-10" data-node="true" data-id="CACHE" transform="translate(1232.6530113220215, 715.0000038146973)"><rect class="basic label-container" style="" rx="0" ry="0" x="-101.578125" y="-32.83333396911621" width="203.15625" height="65.66666793823242"/><g class="label" style="" transform="translate(0, -25.33333396911621)"><rect/><text style=""><tspan xml:space="preserve" dy="1em" x="0" class="row">语义缓存</tspan><tspan xml:space="preserve" dy="1em" x="0" class="row">DiskCache 余弦≥0.92</tspan><tspan xml:space="preserve" dy="1em" x="0" class="row">命中即直接返回（约2ms）</tspan></text></g></g><g class="node default default flowchart-label" id="flowchart-FUSE-11" data-node="true" data-id="FUSE" transform="translate(1232.6530113220215, 819.666669845581)"><rect class="basic label-container" style="" rx="0" ry="0" x="-96.4375" y="-16.83333396911621" width="192.875" height="33.66666793823242"/><g class="label" style="" transform="translate(0, -9.333333969116211)"><rect/><text style=""><tspan xml:space="preserve" dy="1em" x="0" class="row">多路混合召回 + RRF 融合</tspan></text></g></g><g class="node default default flowchart-label" id="flowchart-RR-12" data-node="true" data-id="RR" transform="translate(1292.038429260254, 943.8333377838135)"><rect class="basic label-container" style="" rx="0" ry="0" x="-105.171875" y="-16.83333396911621" width="210.34375" height="33.66666793823242"/><g class="label" style="" transform="translate(0, -9.333333969116211)"><rect/><text style=""><tspan xml:space="preserve" dy="1em" x="0" class="row">bge-reranker-v2-m3 重排序</tspan></text></g></g><g class="node default default flowchart-label" id="flowchart-PC-13" data-node="true" data-id="PC" transform="translate(1407.5494995117188, 1103.500005722046)"><rect class="basic label-container" style="" rx="0" ry="0" x="-47.5" y="-24.83333396911621" width="95" height="49.66666793823242"/><g class="label" style="" transform="translate(0, -17.33333396911621)"><rect/><text style=""><tspan xml:space="preserve" dy="1em" x="0" class="row">父子块映射</tspan><tspan xml:space="preserve" dy="1em" x="0" class="row">小查大返</tspan></text></g></g><g class="node default default flowchart-label" id="flowchart-LLM-14" data-node="true" data-id="LLM" transform="translate(1407.5494995117188, 1208.1666736602783)"><rect class="basic label-container" style="" rx="0" ry="0" x="-91.72917175292969" y="-16.83333396911621" width="183.45834350585938" height="33.66666793823242"/><g class="label" style="" transform="translate(0, -9.333333969116211)"><rect/><text style=""><tspan xml:space="preserve" dy="1em" x="0" class="row">DeepSeek-v4-flash 生成</tspan></text></g></g><g class="node default default flowchart-label" id="flowchart-H-2" data-node="true" data-id="H" transform="translate(428.4993553161621, 327.3333339691162)"><rect class="basic label-container" style="" rx="0" ry="0" x="-100.6875" y="-16.83333396911621" width="201.375" height="33.66666793823242"/><g class="label" style="" transform="translate(0, -9.333333969116211)"><rect/><text style=""><tspan xml:space="preserve" dy="1em" x="0" class="row">GET /api/health 健康检查</tspan></text></g></g><g class="node default default flowchart-label" id="flowchart-A-3" data-node="true" data-id="A" transform="translate(1700.9349098205566, 327.3333339691162)"><rect class="basic label-container" style="" rx="0" ry="0" x="-93.328125" y="-16.83333396911621" width="186.65625" height="33.66666793823242"/><g class="label" style="" transform="translate(0, -9.333333969116211)"><rect/><text style=""><tspan xml:space="preserve" dy="1em" x="0" class="row">POST /api/ask 同步问答</tspan></text></g></g><g class="node default default flowchart-label" id="flowchart-S-4" data-node="true" data-id="S" transform="translate(1156.9739723205566, 327.3333339691162)"><rect class="basic label-container" style="" rx="0" ry="0" x="-120.640625" y="-16.83333396911621" width="241.28125" height="33.66666793823242"/><g class="label" style="" transform="translate(0, -9.333333969116211)"><rect/><text style=""><tspan xml:space="preserve" dy="1em" x="0" class="row">POST /api/ask_stream SSE 流式</tspan></text></g></g><g class="node default default flowchart-label" id="flowchart-F-5" data-node="true" data-id="F" transform="translate(1470.9557456970215, 327.3333339691162)"><rect class="basic label-container" style="" rx="0" ry="0" x="-98.65104675292969" y="-16.83333396911621" width="197.30209350585938" height="33.66666793823242"/><g class="label" style="" transform="translate(0, -9.333333969116211)"><rect/><text style=""><tspan xml:space="preserve" dy="1em" x="0" class="row">POST /api/feedback 反馈</tspan></text></g></g><g class="node default default flowchart-label" id="flowchart-Q-6" data-node="true" data-id="Q" transform="translate(1943.8984489440918, 327.3333339691162)"><rect class="basic label-container" style="" rx="0" ry="0" x="-111.63542175292969" y="-16.83333396911621" width="223.27084350585938" height="33.66666793823242"/><g class="label" style="" transform="translate(0, -9.333333969116211)"><rect/><text style=""><tspan xml:space="preserve" dy="1em" x="0" class="row">GET /api/questions 示例问题</tspan></text></g></g><g class="node default default flowchart-label" id="flowchart-STATS-7" data-node="true" data-id="STATS" transform="translate(2172.408863067627, 327.3333339691162)"><rect class="basic label-container" style="" rx="0" ry="0" x="-78.875" y="-16.83333396911621" width="157.75" height="33.66666793823242"/><g class="label" style="" transform="translate(0, -9.333333969116211)"><rect/><text style=""><tspan xml:space="preserve" dy="1em" x="0" class="row">GET /api/stats 统计</tspan></text></g></g><g class="node default default flowchart-label" id="flowchart-U-0" data-node="true" data-id="U" transform="translate(1700.9349098205566, 44.33333396911621)"><rect class="basic label-container" style="" rx="0" ry="0" x="-60.895835876464844" y="-16.83333396911621" width="121.79167175292969" height="33.66666793823242"/><g class="label" style="" transform="translate(0, -9.333333969116211)"><rect/><text style=""><tspan xml:space="preserve" dy="1em" x="0" class="row">👤 用户浏览器</tspan></text></g></g><g class="node default default flowchart-label" id="flowchart-ST-1" data-node="true" data-id="ST" transform="translate(1700.9349098205566, 149)"><rect class="basic label-container" style="" rx="0" ry="0" x="-178.546875" y="-32.83333396911621" width="357.09375" height="65.66666793823242"/><g class="label" style="" transform="translate(0, -25.33333396911621)"><rect/><text style=""><tspan xml:space="preserve" dy="1em" x="0" class="row">Streamlit 优化版前端</tspan><tspan xml:space="preserve" dy="1em" x="0" class="row">:8502</tspan><tspan xml:space="preserve" dy="1em" x="0" class="row">中英双语 / 优化前后对比 / 点赞点踩 / 语音输入</tspan></text></g></g></g></g></g></svg>