<svg xmlns="http://www.w3.org/2000/svg" width="757" height="1302" viewBox="0 0 757 1302" font-family='"Microsoft YaHei","PingFang SC","Noto Sans CJK SC","Hiragino Sans GB",sans-serif'>
<defs>
<marker id="arw" viewBox="0 0 10 10" refX="9" refY="5" markerWidth="7" markerHeight="7" orient="auto-start-reverse"><path d="M 0 0 L 10 5 L 0 10 z" fill="#64748b"/></marker>
<marker id="arwd" viewBox="0 0 10 10" refX="9" refY="5" markerWidth="7" markerHeight="7" orient="auto-start-reverse"><path d="M 0 0 L 10 5 L 0 10 z" fill="#94a3b8"/></marker>
</defs>
<rect width="757" height="1302" fill="#ffffff"/>
<text x="34" y="52" font-size="17" font-weight="600" fill="#0f172a">图 2 · 离线入库：一份文档怎么变成可检索的知识</text>
<path d="M 340.8 122.0 C 340.8 138.0 340.8 136.0 340.8 152.0" fill="none" stroke="#64748b" stroke-width="1.6" marker-end="url(#arw)"/>
<path d="M 340.8 194.0 C 340.8 214.2 340.8 214.2 340.8 234.5" fill="none" stroke="#64748b" stroke-width="1.6" marker-end="url(#arw)"/>
<path d="M 427.2 255.5 C 464.2 255.5 464.2 255.5 501.2 255.5" fill="none" stroke="#94a3b8" stroke-width="1.6" stroke-dasharray="6 5" marker-end="url(#arwd)"/>
  <rect x="435.1" y="245.5" width="58.3" height="20" rx="6" fill="#ffffff" stroke="#e2e8f0" stroke-width="1"/>
  <text x="464.2" y="255.5" text-anchor="middle" dominant-baseline="middle" font-size="11.5" fill="#475569">OCR 关闭</text>
<path d="M 340.8 276.5 C 340.8 296.8 164.6 296.8 164.6 317.0" fill="none" stroke="#64748b" stroke-width="1.6" marker-end="url(#arw)"/>
  <rect x="224.7" y="286.8" width="56.0" height="20" rx="6" fill="#ffffff" stroke="#e2e8f0" stroke-width="1"/>
  <text x="252.7" y="296.8" text-anchor="middle" dominant-baseline="middle" font-size="11.5" fill="#475569">无文字层</text>
<path d="M 340.8 276.5 C 340.8 302.0 349.2 302.0 349.2 327.5" fill="none" stroke="#64748b" stroke-width="1.6" marker-end="url(#arw)"/>
  <rect x="334.2" y="292.0" width="21.5" height="20" rx="6" fill="#ffffff" stroke="#e2e8f0" stroke-width="1"/>
  <text x="345.0" y="302.0" text-anchor="middle" dominant-baseline="middle" font-size="11.5" fill="#475569">能</text>
<path d="M 340.8 276.5 C 340.8 296.8 525.4 296.8 525.4 317.0" fill="none" stroke="#64748b" stroke-width="1.6" marker-end="url(#arw)"/>
  <rect x="405.1" y="286.8" width="56.0" height="20" rx="6" fill="#ffffff" stroke="#e2e8f0" stroke-width="1"/>
  <text x="433.1" y="296.8" text-anchor="middle" dominant-baseline="middle" font-size="11.5" fill="#475569">文本过少</text>
<path d="M 349.2 369.5 C 349.2 389.8 340.8 389.8 340.8 410.0" fill="none" stroke="#64748b" stroke-width="1.6" marker-end="url(#arw)"/>
<path d="M 164.6 380.0 C 164.6 396.0 340.8 394.0 340.8 410.0" fill="none" stroke="#64748b" stroke-width="1.6" marker-end="url(#arw)"/>
<path d="M 525.4 380.0 C 525.4 396.0 340.8 394.0 340.8 410.0" fill="none" stroke="#64748b" stroke-width="1.6" marker-end="url(#arw)"/>
<path d="M 340.8 473.0 C 340.8 489.0 340.8 487.0 340.8 503.0" fill="none" stroke="#64748b" stroke-width="1.6" marker-end="url(#arw)"/>
<path d="M 340.8 566.0 C 340.8 586.2 340.8 586.2 340.8 606.5" fill="none" stroke="#64748b" stroke-width="1.6" marker-end="url(#arw)"/>
<path d="M 438.4 627.5 C 475.4 627.5 475.4 627.5 512.4 627.5" fill="none" stroke="#64748b" stroke-width="1.6" marker-end="url(#arw)"/>
  <rect x="464.7" y="617.5" width="21.5" height="20" rx="6" fill="#ffffff" stroke="#e2e8f0" stroke-width="1"/>
  <text x="475.4" y="627.5" text-anchor="middle" dominant-baseline="middle" font-size="11.5" fill="#475569">是</text>
<path d="M 340.8 648.5 C 340.8 668.8 340.8 668.8 340.8 689.0" fill="none" stroke="#64748b" stroke-width="1.6" marker-end="url(#arw)"/>
  <rect x="330.1" y="658.8" width="21.5" height="20" rx="6" fill="#ffffff" stroke="#e2e8f0" stroke-width="1"/>
  <text x="340.8" y="668.8" text-anchor="middle" dominant-baseline="middle" font-size="11.5" fill="#475569">否</text>
<path d="M 404.8 710.0 C 458.6 710.0 458.6 627.5 512.4 627.5" fill="none" stroke="#64748b" stroke-width="1.6" marker-end="url(#arw)"/>
  <rect x="447.9" y="658.8" width="21.5" height="20" rx="6" fill="#ffffff" stroke="#e2e8f0" stroke-width="1"/>
  <text x="458.6" y="668.8" text-anchor="middle" dominant-baseline="middle" font-size="11.5" fill="#475569">是</text>
<path d="M 340.8 731.0 C 340.8 747.0 340.8 745.0 340.8 761.0" fill="none" stroke="#64748b" stroke-width="1.6" marker-end="url(#arw)"/>
  <rect x="330.1" y="736.0" width="21.5" height="20" rx="6" fill="#ffffff" stroke="#e2e8f0" stroke-width="1"/>
  <text x="340.8" y="746.0" text-anchor="middle" dominant-baseline="middle" font-size="11.5" fill="#475569">否</text>
<path d="M 340.8 824.0 C 340.8 840.0 340.8 838.0 340.8 854.0" fill="none" stroke="#64748b" stroke-width="1.6" marker-end="url(#arw)"/>
  <rect x="330.1" y="829.0" width="21.5" height="20" rx="6" fill="#ffffff" stroke="#e2e8f0" stroke-width="1"/>
  <text x="340.8" y="839.0" text-anchor="middle" dominant-baseline="middle" font-size="11.5" fill="#475569">是</text>
<path d="M 340.8 824.0 C 340.8 870.0 340.8 901.0 340.8 947.0" fill="none" stroke="#64748b" stroke-width="1.6" marker-end="url(#arw)"/>
  <rect x="330.1" y="875.5" width="21.5" height="20" rx="6" fill="#ffffff" stroke="#e2e8f0" stroke-width="1"/>
  <text x="340.8" y="885.5" text-anchor="middle" dominant-baseline="middle" font-size="11.5" fill="#475569">否</text>
<path d="M 340.8 917.0 C 340.8 933.0 340.8 931.0 340.8 947.0" fill="none" stroke="#64748b" stroke-width="1.6" marker-end="url(#arw)"/>
<path d="M 340.8 1010.0 C 340.8 1026.0 340.8 1024.0 340.8 1040.0" fill="none" stroke="#64748b" stroke-width="1.6" marker-end="url(#arw)"/>
<path d="M 340.8 1103.0 C 340.8 1119.0 340.8 1117.0 340.8 1133.0" fill="none" stroke="#64748b" stroke-width="1.6" marker-end="url(#arw)"/>
<path d="M 340.8 1196.0 C 340.8 1212.0 340.8 1210.0 340.8 1226.0" fill="none" stroke="#64748b" stroke-width="1.6" marker-end="url(#arw)"/>
  <rect x="225.4" y="80.0" width="230.9" height="42.0" rx="21.0" fill="#0f172a" stroke="#0f172a" stroke-width="1.6"/>
  <text x="340.8" y="101.0" text-anchor="middle" dominant-baseline="middle" font-size="14.0" fill="#ffffff">文档：PDF / 图片 / md / txt</text>
  <rect x="273.3" y="152.0" width="135.0" height="42.0" rx="8" fill="#ffedd5" stroke="#f97316" stroke-width="1.6"/>
  <text x="340.8" y="173.0" text-anchor="middle" dominant-baseline="middle" font-size="14.0" fill="#0f172a">parser.py 解析</text>
  <path d="M 267.4 234.5 H 414.2 L 427.2 247.5 V 263.5 L 414.2 276.5 H 267.4 L 254.4 263.5 V 247.5 Z" fill="#fef3c7" stroke="#f59e0b" stroke-width="1.6"/>
  <text x="340.8" y="255.5" text-anchor="middle" dominant-baseline="middle" font-size="14.0" fill="#0f172a">PDF 能直接抽出文本？</text>
  <rect x="501.2" y="224.0" width="195.9" height="63.0" rx="8" fill="#fee2e2" stroke="#ef4444" stroke-width="1.6"/>
  <text x="599.2" y="245.0" text-anchor="middle" dominant-baseline="middle" font-size="14.0" fill="#0f172a">返回空文本 → 接口报 400</text>
  <text x="599.2" y="268.0" text-anchor="middle" dominant-baseline="middle" font-size="11.5" fill="#b91c1c">扫描件且 OCR 关闭</text>
  <rect x="60.0" y="317.0" width="209.2" height="63.0" rx="8" fill="#ffedd5" stroke="#f97316" stroke-width="1.6"/>
  <text x="164.6" y="338.0" text-anchor="middle" dominant-baseline="middle" font-size="14.0" fill="#0f172a">ocr.py RapidOCR 逐页识别</text>
  <text x="164.6" y="361.0" text-anchor="middle" dominant-baseline="middle" font-size="11.5" fill="#c2410c">单页失败只记警告，不连累整篇</text>
  <rect x="295.2" y="327.5" width="108.0" height="42.0" rx="8" fill="#ffedd5" stroke="#f97316" stroke-width="1.6"/>
  <text x="349.2" y="348.5" text-anchor="middle" dominant-baseline="middle" font-size="14.0" fill="#0f172a">纯文本</text>
  <rect x="429.2" y="317.0" width="192.4" height="63.0" rx="8" fill="#ffedd5" stroke="#f97316" stroke-width="1.6"/>
  <text x="525.4" y="338.0" text-anchor="middle" dominant-baseline="middle" font-size="14.0" fill="#0f172a">退回 pdfplumber 抽表格</text>
  <text x="525.4" y="361.0" text-anchor="middle" dominant-baseline="middle" font-size="11.5" fill="#c2410c">文本过少时兜底</text>
  <rect x="243.6" y="410.0" width="194.4" height="63.0" rx="8" fill="#ffedd5" stroke="#f97316" stroke-width="1.6"/>
  <text x="340.8" y="431.0" text-anchor="middle" dominant-baseline="middle" font-size="14.0" fill="#0f172a">cleaner.py 清洗</text>
  <text x="340.8" y="454.0" text-anchor="middle" dominant-baseline="middle" font-size="11.5" fill="#c2410c">去水印 / 页眉页脚 / 空白归一</text>
  <rect x="153.6" y="503.0" width="374.4" height="63.0" rx="8" fill="#ffedd5" stroke="#f97316" stroke-width="1.6"/>
  <text x="340.8" y="524.0" text-anchor="middle" dominant-baseline="middle" font-size="14.0" fill="#0f172a">chunker.py 分块</text>
  <text x="340.8" y="547.0" text-anchor="middle" dominant-baseline="middle" font-size="11.5" fill="#c2410c">fixed / sentence / paragraph / title / semantic ＋ 重叠</text>
  <path d="M 256.2 606.5 H 425.4 L 438.4 619.5 V 635.5 L 425.4 648.5 H 256.2 L 243.2 635.5 V 619.5 Z" fill="#fef3c7" stroke="#f59e0b" stroke-width="1.6"/>
  <text x="340.8" y="627.5" text-anchor="middle" dominant-baseline="middle" font-size="14.0" fill="#0f172a">低于 MIN_CHUNK_CHARS？</text>
  <rect x="512.4" y="596.0" width="141.0" height="63.0" rx="8" fill="#fee2e2" stroke="#ef4444" stroke-width="1.6"/>
  <text x="582.9" y="617.0" text-anchor="middle" dominant-baseline="middle" font-size="14.0" fill="#0f172a">丢弃</text>
  <text x="582.9" y="640.0" text-anchor="middle" dominant-baseline="middle" font-size="11.5" fill="#b91c1c">低质量块 / 重复内容</text>
  <path d="M 289.8 689.0 H 391.8 L 404.8 702.0 V 718.0 L 391.8 731.0 H 289.8 L 276.8 718.0 V 702.0 Z" fill="#fef3c7" stroke="#f59e0b" stroke-width="1.6"/>
  <text x="340.8" y="710.0" text-anchor="middle" dominant-baseline="middle" font-size="14.0" fill="#0f172a">内容哈希重复？</text>
  <path d="M 253.4 761.0 H 428.2 L 441.2 774.0 V 811.0 L 428.2 824.0 H 253.4 L 240.4 811.0 V 774.0 Z" fill="#fef3c7" stroke="#f59e0b" stroke-width="1.6"/>
  <text x="340.8" y="782.0" text-anchor="middle" dominant-baseline="middle" font-size="14.0" fill="#0f172a">开启摘要？</text>
  <text x="340.8" y="805.0" text-anchor="middle" dominant-baseline="middle" font-size="11.5" fill="#b45309">SUMMARY_ENABLED / --summary</text>
  <rect x="244.4" y="854.0" width="192.7" height="63.0" rx="8" fill="#dcfce7" stroke="#22c55e" stroke-width="1.6"/>
  <text x="340.8" y="875.0" text-anchor="middle" dominant-baseline="middle" font-size="14.0" fill="#0f172a">LLM 生成一句摘要</text>
  <text x="340.8" y="898.0" text-anchor="middle" dominant-baseline="middle" font-size="11.5" fill="#15803d">存进 summary 字段（费 LLM）</text>
  <rect x="243.3" y="947.0" width="195.0" height="63.0" rx="8" fill="#ffedd5" stroke="#f97316" stroke-width="1.6"/>
  <text x="340.8" y="968.0" text-anchor="middle" dominant-baseline="middle" font-size="14.0" fill="#0f172a">embedding.py 向量化</text>
  <text x="340.8" y="991.0" text-anchor="middle" dominant-baseline="middle" font-size="11.5" fill="#c2410c">bge-m3 → 1024 维，L2 归一化</text>
  <rect x="178.0" y="1040.0" width="325.6" height="63.0" rx="8" fill="#ccfbf1" stroke="#14b8a6" stroke-width="1.6"/>
  <text x="340.8" y="1061.0" text-anchor="middle" dominant-baseline="middle" font-size="14.0" fill="#0f172a">ingest.store_chunks</text>
  <text x="340.8" y="1084.0" text-anchor="middle" dominant-baseline="middle" font-size="11.5" fill="#0f766e">① 写 Milvus：向量 + 正文　② 写关系库：登记这份文档</text>
  <rect x="187.2" y="1133.0" width="307.2" height="63.0" rx="8" fill="#ccfbf1" stroke="#14b8a6" stroke-width="1.6"/>
  <text x="340.8" y="1154.0" text-anchor="middle" dominant-baseline="middle" font-size="14.0" fill="#0f172a">hybrid_retriever.invalidate(role_id)</text>
  <text x="340.8" y="1177.0" text-anchor="middle" dominant-baseline="middle" font-size="11.5" fill="#0f766e">失效本进程的 BM25 索引缓存</text>
  <rect x="242.9" y="1226.0" width="195.9" height="42.0" rx="8" fill="#dcfce7" stroke="#22c55e" stroke-width="1.6"/>
  <text x="340.8" y="1247.0" text-anchor="middle" dominant-baseline="middle" font-size="14.0" fill="#0f172a">这些 chunk 从此可被检索</text>
</svg>
