<svg xmlns="http://www.w3.org/2000/svg" width="934" height="581" viewBox="0 0 934 581" font-family='"Microsoft YaHei","PingFang SC","Noto Sans CJK SC","Hiragino Sans GB",sans-serif'>
<defs>
<marker id="arw" viewBox="0 0 10 10" refX="9" refY="5" markerWidth="7" markerHeight="7" orient="auto-start-reverse"><path d="M 0 0 L 10 5 L 0 10 z" fill="#64748b"/></marker>
<marker id="arwd" viewBox="0 0 10 10" refX="9" refY="5" markerWidth="7" markerHeight="7" orient="auto-start-reverse"><path d="M 0 0 L 10 5 L 0 10 z" fill="#94a3b8"/></marker>
</defs>
<rect width="934" height="581" fill="#ffffff"/>
<text x="34" y="52" font-size="17" font-weight="600" fill="#0f172a">图 1 · 系统架构（分层与可替换边界）</text>
<rect x="253.2" y="50.0" width="427.9" height="107.0" rx="12" fill="#f8fafc" stroke="#cbd5e1" stroke-width="1.2"/>
<rect x="151.8" y="143.0" width="630.8" height="107.0" rx="12" fill="#eff6ff" stroke="#bfdbfe" stroke-width="1.2"/>
<rect x="298.8" y="236.0" width="336.9" height="107.0" rx="12" fill="#f5f3ff" stroke="#ddd6fe" stroke-width="1.2"/>
<rect x="154.8" y="329.0" width="624.8" height="139.0" rx="12" fill="#f8fafc" stroke="#e2e8f0" stroke-width="1.2"/>
<rect x="44.0" y="454.0" width="846.4" height="107.0" rx="12" fill="#f8fafc" stroke="#e2e8f0" stroke-width="1.2"/>
<path d="M 350.7 143.0 C 350.7 159.0 355.8 157.0 355.8 173.0" fill="none" stroke="#64748b" stroke-width="1.6" marker-end="url(#arw)"/>
<path d="M 561.6 132.5 C 561.6 152.8 355.8 152.8 355.8 173.0" fill="none" stroke="#64748b" stroke-width="1.6" marker-end="url(#arw)"/>
<path d="M 355.8 236.0 C 355.8 252.0 467.2 250.0 467.2 266.0" fill="none" stroke="#64748b" stroke-width="1.6" marker-end="url(#arw)"/>
<path d="M 516.3 236.0 C 516.3 252.0 467.2 250.0 467.2 266.0" fill="none" stroke="#94a3b8" stroke-width="1.6" stroke-dasharray="6 5" marker-end="url(#arwd)"/>
<path d="M 467.2 329.0 C 467.2 348.0 287.0 348.0 287.0 367.0" fill="none" stroke="#64748b" stroke-width="1.6" marker-end="url(#arw)"/>
<path d="M 467.2 329.0 C 467.2 345.0 501.1 343.0 501.1 359.0" fill="none" stroke="#64748b" stroke-width="1.6" marker-end="url(#arw)"/>
<path d="M 467.2 329.0 C 467.2 345.0 681.3 343.0 681.3 359.0" fill="none" stroke="#64748b" stroke-width="1.6" marker-end="url(#arw)"/>
<path d="M 287.0 446.0 C 287.0 465.0 163.6 465.0 163.6 484.0" fill="none" stroke="#94a3b8" stroke-width="1.6" stroke-dasharray="6 5" marker-end="url(#arwd)"/>
<path d="M 501.1 454.0 C 501.1 470.0 163.6 468.0 163.6 484.0" fill="none" stroke="#94a3b8" stroke-width="1.6" stroke-dasharray="6 5" marker-end="url(#arwd)"/>
<path d="M 681.3 454.0 C 681.3 470.0 535.7 468.0 535.7 484.0" fill="none" stroke="#94a3b8" stroke-width="1.6" stroke-dasharray="6 5" marker-end="url(#arwd)"/>
<path d="M 681.3 454.0 C 681.3 470.0 681.1 468.0 681.1 484.0" fill="none" stroke="#94a3b8" stroke-width="1.6" stroke-dasharray="6 5" marker-end="url(#arwd)"/>
<path d="M 681.3 454.0 C 681.3 470.0 820.4 468.0 820.4 484.0" fill="none" stroke="#94a3b8" stroke-width="1.6" stroke-dasharray="6 5" marker-end="url(#arwd)"/>
  <rect x="269.2" y="80.0" width="162.8" height="63.0" rx="8" fill="#ffffff" stroke="#94a3b8" stroke-width="1.6"/>
  <text x="350.7" y="101.0" text-anchor="middle" dominant-baseline="middle" font-size="14.0" fill="#0f172a">浏览器聊天页</text>
  <text x="350.7" y="124.0" text-anchor="middle" dominant-baseline="middle" font-size="11.5" fill="#64748b">app/static/index.html</text>
  <rect x="458.1" y="90.5" width="207.1" height="42.0" rx="8" fill="#ffffff" stroke="#94a3b8" stroke-width="1.6"/>
  <text x="561.6" y="111.5" text-anchor="middle" dominant-baseline="middle" font-size="14.0" fill="#0f172a">curl / Postman / Jmeter</text>
  <rect x="167.8" y="183.5" width="108.0" height="42.0" rx="8" fill="#dbeafe" stroke="#3b82f6" stroke-width="1.6"/>
  <text x="221.8" y="204.5" text-anchor="middle" dominant-baseline="middle" font-size="14.0" fill="#0f172a">/health</text>
  <rect x="301.8" y="173.0" width="108.0" height="63.0" rx="8" fill="#dbeafe" stroke="#3b82f6" stroke-width="1.6"/>
  <text x="355.8" y="194.0" text-anchor="middle" dominant-baseline="middle" font-size="14.0" fill="#0f172a">/chat</text>
  <text x="355.8" y="217.0" text-anchor="middle" dominant-baseline="middle" font-size="11.5" fill="#1d4ed8">/chat/stream</text>
  <rect x="435.8" y="173.0" width="160.9" height="63.0" rx="8" fill="#dbeafe" stroke="#3b82f6" stroke-width="1.6"/>
  <text x="516.3" y="194.0" text-anchor="middle" dominant-baseline="middle" font-size="14.0" fill="#0f172a">/knowledge/upload</text>
  <text x="516.3" y="217.0" text-anchor="middle" dominant-baseline="middle" font-size="11.5" fill="#1d4ed8">/knowledge/list</text>
  <rect x="622.7" y="173.0" width="143.9" height="63.0" rx="8" fill="#dbeafe" stroke="#3b82f6" stroke-width="1.6"/>
  <text x="694.7" y="194.0" text-anchor="middle" dominant-baseline="middle" font-size="14.0" fill="#0f172a">/role/list</text>
  <text x="694.7" y="217.0" text-anchor="middle" dominant-baseline="middle" font-size="11.5" fill="#1d4ed8">/role/{id} · /role</text>
  <rect x="314.8" y="266.0" width="304.9" height="63.0" rx="8" fill="#ede9fe" stroke="#8b5cf6" stroke-width="1.6"/>
  <text x="467.2" y="287.0" text-anchor="middle" dominant-baseline="middle" font-size="14.0" fill="#0f172a">RAGPipeline · app/core/pipeline.py</text>
  <text x="467.2" y="310.0" text-anchor="middle" dominant-baseline="middle" font-size="11.5" fill="#6d28d9">检索 → 重排 → 提示词 → LLM → 后处理 → 写回记忆</text>
  <rect x="170.8" y="367.0" width="232.4" height="79.0" rx="8" fill="#dcfce7" stroke="#22c55e" stroke-width="1.6"/>
  <text x="287.0" y="388.0" text-anchor="middle" dominant-baseline="middle" font-size="14.0" fill="#0f172a">在线链路</text>
  <text x="287.0" y="411.0" text-anchor="middle" dominant-baseline="middle" font-size="11.5" fill="#15803d">retrieve/ · reranker · embedding</text>
  <text x="287.0" y="427.0" text-anchor="middle" dominant-baseline="middle" font-size="11.5" fill="#15803d">llm · prompt/ · postprocess</text>
  <rect x="429.2" y="359.0" width="143.9" height="95.0" rx="8" fill="#ffedd5" stroke="#f97316" stroke-width="1.6"/>
  <text x="501.1" y="380.0" text-anchor="middle" dominant-baseline="middle" font-size="14.0" fill="#0f172a">离线链路</text>
  <text x="501.1" y="403.0" text-anchor="middle" dominant-baseline="middle" font-size="11.5" fill="#c2410c">document/</text>
  <text x="501.1" y="419.0" text-anchor="middle" dominant-baseline="middle" font-size="11.5" fill="#c2410c">parser·ocr·cleaner</text>
  <text x="501.1" y="435.0" text-anchor="middle" dominant-baseline="middle" font-size="11.5" fill="#c2410c">chunker·enhance</text>
  <rect x="599.1" y="359.0" width="164.6" height="95.0" rx="8" fill="#ccfbf1" stroke="#14b8a6" stroke-width="1.6"/>
  <text x="681.3" y="380.0" text-anchor="middle" dominant-baseline="middle" font-size="14.0" fill="#0f172a">存储</text>
  <text x="681.3" y="403.0" text-anchor="middle" dominant-baseline="middle" font-size="11.5" fill="#0f766e">milvus_store 向量+正文</text>
  <text x="681.3" y="419.0" text-anchor="middle" dominant-baseline="middle" font-size="11.5" fill="#0f766e">sql_store 登记</text>
  <text x="681.3" y="435.0" text-anchor="middle" dominant-baseline="middle" font-size="11.5" fill="#0f766e">memory 短期记忆</text>
  <rect x="60.0" y="484.0" width="207.1" height="63.0" rx="8" fill="#f1f5f9" stroke="#94a3b8" stroke-width="1.6"/>
  <text x="163.6" y="505.0" text-anchor="middle" dominant-baseline="middle" font-size="14.0" fill="#0f172a">Ollama</text>
  <text x="163.6" y="528.0" text-anchor="middle" dominant-baseline="middle" font-size="11.5" fill="#64748b">LLM qwen3 · Embedding bge-m3</text>
  <rect x="293.1" y="484.0" width="156.5" height="63.0" rx="8" fill="#f1f5f9" stroke="#94a3b8" stroke-width="1.6"/>
  <text x="371.4" y="505.0" text-anchor="middle" dominant-baseline="middle" font-size="14.0" fill="#0f172a">bge-reranker</text>
  <text x="371.4" y="528.0" text-anchor="middle" dominant-baseline="middle" font-size="11.5" fill="#64748b">供在线链路精排（可选）</text>
  <rect x="475.6" y="484.0" width="120.3" height="63.0" rx="8" fill="#f1f5f9" stroke="#94a3b8" stroke-width="1.6"/>
  <text x="535.7" y="505.0" text-anchor="middle" dominant-baseline="middle" font-size="14.0" fill="#0f172a">Milvus</text>
  <text x="535.7" y="528.0" text-anchor="middle" dominant-baseline="middle" font-size="11.5" fill="#64748b">Lite / 独立服务</text>
  <rect x="621.9" y="484.0" width="118.5" height="63.0" rx="8" fill="#f1f5f9" stroke="#94a3b8" stroke-width="1.6"/>
  <text x="681.1" y="505.0" text-anchor="middle" dominant-baseline="middle" font-size="14.0" fill="#0f172a">关系库</text>
  <text x="681.1" y="528.0" text-anchor="middle" dominant-baseline="middle" font-size="11.5" fill="#64748b">SQLite / MySQL</text>
  <rect x="766.4" y="484.0" width="108.0" height="63.0" rx="8" fill="#f1f5f9" stroke="#94a3b8" stroke-width="1.6"/>
  <text x="820.4" y="505.0" text-anchor="middle" dominant-baseline="middle" font-size="14.0" fill="#0f172a">短期记忆</text>
  <text x="820.4" y="528.0" text-anchor="middle" dominant-baseline="middle" font-size="11.5" fill="#64748b">内存 / Redis</text>
<rect x="261.2" y="56.0" width="53.5" height="21" rx="6" fill="#f8fafc"/>
<text x="269.2" y="71.0" font-size="12.5" font-weight="600" fill="#475569">客户端</text>
<rect x="159.8" y="149.0" width="298.5" height="21" rx="6" fill="#eff6ff"/>
<text x="167.8" y="164.0" font-size="12.5" font-weight="600" fill="#1d4ed8">接入层 · FastAPI（app/main.py + app/api/）</text>
<rect x="306.8" y="242.0" width="236.6" height="21" rx="6" fill="#f5f3ff"/>
<text x="314.8" y="257.0" font-size="12.5" font-weight="600" fill="#6d28d9">编排层 · 只编排流程，不实现具体能力</text>
<rect x="162.8" y="335.0" width="148.5" height="21" rx="6" fill="#f8fafc"/>
<text x="170.8" y="350.0" font-size="12.5" font-weight="600" fill="#475569">核心模块 · app/core/</text>
<rect x="52.0" y="460.0" width="265.4" height="21" rx="6" fill="#f8fafc"/>
<text x="60.0" y="475.0" font-size="12.5" font-weight="600" fill="#475569">外部依赖 · 每一种实现都能在 .env 里换掉</text>
</svg>
